<mxfile host="app.diagrams.net" agent="Mozilla/5.0 (Windows NT 10.0; Win64; x64) AppleWebKit/537.36 (KHTML, like Gecko) Chrome/129.0.0.0 Safari/537.36" version="24.7.17">
  <diagram name="Page-1" id="VQlnx4K6SbTTtwn7qXJK">
    <mxGraphModel dx="2438" dy="984" grid="1" gridSize="10" guides="1" tooltips="1" connect="1" arrows="1" fold="1" page="1" pageScale="1" pageWidth="850" pageHeight="1100" background="#FFF2CC" math="0" shadow="0">
      <root>
        <mxCell id="0" />
        <mxCell id="1" parent="0" />
        <mxCell id="maCkLbIFlVlTs5_sAo36-1" value="API Gateway: Entry Point" style="outlineConnect=0;dashed=0;verticalLabelPosition=bottom;verticalAlign=top;align=center;html=1;shape=mxgraph.aws3.lambda_function;fillColor=#F58534;gradientColor=none;" parent="1" vertex="1">
          <mxGeometry x="120" y="60" width="69" height="72" as="geometry" />
        </mxCell>
        <mxCell id="maCkLbIFlVlTs5_sAo36-2" value="LoanProcessingQueue&lt;div&gt;Message storage and decoupling of services&lt;br&gt;&lt;/div&gt;" style="outlineConnect=0;dashed=0;verticalLabelPosition=bottom;verticalAlign=top;align=center;html=1;shape=mxgraph.aws3.sqs;fillColor=#3399FF;gradientColor=none;" parent="1" vertex="1">
          <mxGeometry x="340" y="49.5" width="76.5" height="93" as="geometry" />
        </mxCell>
        <mxCell id="maCkLbIFlVlTs5_sAo36-3" value="NotificationTopic&lt;div&gt;Broadcast notifications to multiple systems and teams&lt;br&gt;&lt;/div&gt;" style="outlineConnect=0;dashed=0;verticalLabelPosition=bottom;verticalAlign=top;align=center;html=1;shape=mxgraph.aws3.sns;fillColor=#D9A741;gradientColor=none;" parent="1" vertex="1">
          <mxGeometry x="560" y="630" width="76.5" height="76.5" as="geometry" />
        </mxCell>
        <mxCell id="maCkLbIFlVlTs5_sAo36-4" value="Compliance Service" style="aspect=fixed;sketch=0;html=1;dashed=0;whitespace=wrap;verticalLabelPosition=bottom;verticalAlign=top;fillColor=#009900;strokeColor=#ffffff;points=[[0.005,0.63,0],[0.1,0.2,0],[0.9,0.2,0],[0.5,0,0],[0.995,0.63,0],[0.72,0.99,0],[0.5,1,0],[0.28,0.99,0]];shape=mxgraph.kubernetes.icon2;prIcon=api" parent="1" vertex="1">
          <mxGeometry x="573.25" y="456.5" width="50" height="48" as="geometry" />
        </mxCell>
        <mxCell id="maCkLbIFlVlTs5_sAo36-5" value="Loan Processing Service" style="aspect=fixed;sketch=0;html=1;dashed=0;whitespace=wrap;verticalLabelPosition=bottom;verticalAlign=top;fillColor=#2875E2;strokeColor=#ffffff;points=[[0.005,0.63,0],[0.1,0.2,0],[0.9,0.2,0],[0.5,0,0],[0.995,0.63,0],[0.72,0.99,0],[0.5,1,0],[0.28,0.99,0]];shape=mxgraph.kubernetes.icon2;prIcon=api" parent="1" vertex="1">
          <mxGeometry x="573.25" y="72" width="50" height="48" as="geometry" />
        </mxCell>
        <mxCell id="maCkLbIFlVlTs5_sAo36-6" value="ComplianceCheckQueue&lt;div&gt;Message storage and decoupling of services&lt;br&gt;&lt;/div&gt;" style="outlineConnect=0;dashed=0;verticalLabelPosition=bottom;verticalAlign=top;align=center;html=1;shape=mxgraph.aws3.sqs;fillColor=#00CC66;gradientColor=none;" parent="1" vertex="1">
          <mxGeometry x="560" y="250" width="76.5" height="93" as="geometry" />
        </mxCell>
        <mxCell id="maCkLbIFlVlTs5_sAo36-9" style="edgeStyle=orthogonalEdgeStyle;rounded=0;orthogonalLoop=1;jettySize=auto;html=1;entryX=0;entryY=0.5;entryDx=0;entryDy=0;entryPerimeter=0;strokeWidth=3;" parent="1" source="maCkLbIFlVlTs5_sAo36-1" target="maCkLbIFlVlTs5_sAo36-2" edge="1">
          <mxGeometry relative="1" as="geometry" />
        </mxCell>
        <mxCell id="maCkLbIFlVlTs5_sAo36-10" style="edgeStyle=orthogonalEdgeStyle;rounded=0;orthogonalLoop=1;jettySize=auto;html=1;strokeColor=#009900;strokeWidth=3;" parent="1" source="maCkLbIFlVlTs5_sAo36-2" edge="1">
          <mxGeometry relative="1" as="geometry">
            <mxPoint x="572" y="96" as="targetPoint" />
          </mxGeometry>
        </mxCell>
        <mxCell id="maCkLbIFlVlTs5_sAo36-11" style="edgeStyle=orthogonalEdgeStyle;rounded=0;orthogonalLoop=1;jettySize=auto;html=1;entryX=0.5;entryY=0;entryDx=0;entryDy=0;entryPerimeter=0;strokeWidth=3;" parent="1" source="maCkLbIFlVlTs5_sAo36-5" target="maCkLbIFlVlTs5_sAo36-6" edge="1">
          <mxGeometry relative="1" as="geometry" />
        </mxCell>
        <mxCell id="maCkLbIFlVlTs5_sAo36-12" style="edgeStyle=orthogonalEdgeStyle;rounded=0;orthogonalLoop=1;jettySize=auto;html=1;entryX=0.5;entryY=0;entryDx=0;entryDy=0;entryPerimeter=0;strokeColor=#009900;strokeWidth=3;" parent="1" source="maCkLbIFlVlTs5_sAo36-6" target="maCkLbIFlVlTs5_sAo36-4" edge="1">
          <mxGeometry relative="1" as="geometry">
            <mxPoint x="598" y="440" as="targetPoint" />
          </mxGeometry>
        </mxCell>
        <mxCell id="maCkLbIFlVlTs5_sAo36-13" style="edgeStyle=orthogonalEdgeStyle;rounded=0;orthogonalLoop=1;jettySize=auto;html=1;entryX=0.5;entryY=0;entryDx=0;entryDy=0;entryPerimeter=0;strokeWidth=3;" parent="1" source="maCkLbIFlVlTs5_sAo36-4" target="maCkLbIFlVlTs5_sAo36-3" edge="1">
          <mxGeometry relative="1" as="geometry" />
        </mxCell>
        <mxCell id="maCkLbIFlVlTs5_sAo36-14" value="DeadLetterQueue&lt;div&gt;&lt;br&gt;&lt;/div&gt;" style="outlineConnect=0;dashed=0;verticalLabelPosition=bottom;verticalAlign=top;align=center;html=1;shape=mxgraph.aws3.sqs;fillColor=#FF0000;gradientColor=none;" parent="1" vertex="1">
          <mxGeometry x="340" y="250" width="76.5" height="93" as="geometry" />
        </mxCell>
        <mxCell id="maCkLbIFlVlTs5_sAo36-15" style="edgeStyle=orthogonalEdgeStyle;rounded=0;orthogonalLoop=1;jettySize=auto;html=1;entryX=0.5;entryY=0;entryDx=0;entryDy=0;entryPerimeter=0;strokeColor=#FF3333;strokeWidth=3;" parent="1" source="maCkLbIFlVlTs5_sAo36-2" target="maCkLbIFlVlTs5_sAo36-14" edge="1">
          <mxGeometry relative="1" as="geometry" />
        </mxCell>
        <mxCell id="maCkLbIFlVlTs5_sAo36-16" style="edgeStyle=orthogonalEdgeStyle;rounded=0;orthogonalLoop=1;jettySize=auto;html=1;entryX=1;entryY=0.5;entryDx=0;entryDy=0;entryPerimeter=0;strokeColor=#FF3333;strokeWidth=3;" parent="1" source="maCkLbIFlVlTs5_sAo36-6" target="maCkLbIFlVlTs5_sAo36-14" edge="1">
          <mxGeometry relative="1" as="geometry" />
        </mxCell>
        <mxCell id="RCDWl6IY-j7fr2IRrZKx-5" value="" style="group" parent="1" vertex="1" connectable="0">
          <mxGeometry x="-590" y="240" width="260" height="590" as="geometry" />
        </mxCell>
        <mxCell id="maCkLbIFlVlTs5_sAo36-17" value="" style="outlineConnect=0;dashed=0;verticalLabelPosition=bottom;verticalAlign=top;align=center;html=1;shape=mxgraph.aws3.lambda_function;fillColor=#F58534;gradientColor=none;" parent="RCDWl6IY-j7fr2IRrZKx-5" vertex="1">
          <mxGeometry x="40" y="40" width="69" height="72" as="geometry" />
        </mxCell>
        <mxCell id="maCkLbIFlVlTs5_sAo36-18" value="&lt;div&gt;Loan Processing Queue&lt;/div&gt;" style="outlineConnect=0;dashed=0;verticalLabelPosition=bottom;verticalAlign=top;align=center;html=1;shape=mxgraph.aws3.sqs;fillColor=#3399FF;gradientColor=none;" parent="RCDWl6IY-j7fr2IRrZKx-5" vertex="1">
          <mxGeometry x="36.25" y="160" width="76.5" height="93" as="geometry" />
        </mxCell>
        <mxCell id="maCkLbIFlVlTs5_sAo36-19" value="&lt;div&gt;Compliance Check Queue&lt;/div&gt;" style="outlineConnect=0;dashed=0;verticalLabelPosition=bottom;verticalAlign=top;align=center;html=1;shape=mxgraph.aws3.sqs;fillColor=#00CC66;gradientColor=none;" parent="RCDWl6IY-j7fr2IRrZKx-5" vertex="1">
          <mxGeometry x="36.25" y="300" width="76.5" height="93" as="geometry" />
        </mxCell>
        <mxCell id="maCkLbIFlVlTs5_sAo36-20" value="Loan Processing Service&lt;div&gt;&lt;br&gt;&lt;/div&gt;" style="aspect=fixed;sketch=0;html=1;dashed=0;whitespace=wrap;verticalLabelPosition=bottom;verticalAlign=top;fillColor=#2875E2;strokeColor=#ffffff;points=[[0.005,0.63,0],[0.1,0.2,0],[0.9,0.2,0],[0.5,0,0],[0.995,0.63,0],[0.72,0.99,0],[0.5,1,0],[0.28,0.99,0]];shape=mxgraph.kubernetes.icon2;prIcon=api" parent="RCDWl6IY-j7fr2IRrZKx-5" vertex="1">
          <mxGeometry x="158.38" y="40" width="70.83" height="68" as="geometry" />
        </mxCell>
        <mxCell id="maCkLbIFlVlTs5_sAo36-23" value="Compliance Service" style="aspect=fixed;sketch=0;html=1;dashed=0;whitespace=wrap;verticalLabelPosition=bottom;verticalAlign=top;fillColor=#009900;strokeColor=#ffffff;points=[[0.005,0.63,0],[0.1,0.2,0],[0.9,0.2,0],[0.5,0,0],[0.995,0.63,0],[0.72,0.99,0],[0.5,1,0],[0.28,0.99,0]];shape=mxgraph.kubernetes.icon2;prIcon=api" parent="RCDWl6IY-j7fr2IRrZKx-5" vertex="1">
          <mxGeometry x="158.38" y="160.00000000000006" width="70.83" height="68" as="geometry" />
        </mxCell>
        <mxCell id="maCkLbIFlVlTs5_sAo36-24" value="&lt;div&gt;Notification Topic&lt;/div&gt;" style="outlineConnect=0;dashed=0;verticalLabelPosition=bottom;verticalAlign=top;align=center;html=1;shape=mxgraph.aws3.sns;fillColor=#D9A741;gradientColor=none;" parent="RCDWl6IY-j7fr2IRrZKx-5" vertex="1">
          <mxGeometry x="155.55" y="300" width="76.5" height="76.5" as="geometry" />
        </mxCell>
        <mxCell id="maCkLbIFlVlTs5_sAo36-26" style="edgeStyle=orthogonalEdgeStyle;rounded=0;orthogonalLoop=1;jettySize=auto;html=1;strokeColor=#009900;strokeWidth=3;" parent="RCDWl6IY-j7fr2IRrZKx-5" edge="1">
          <mxGeometry relative="1" as="geometry">
            <mxPoint x="36.25" y="450" as="sourcePoint" />
            <mxPoint x="170" y="450" as="targetPoint" />
            <Array as="points">
              <mxPoint x="36.25" y="450" />
            </Array>
          </mxGeometry>
        </mxCell>
        <mxCell id="RCDWl6IY-j7fr2IRrZKx-1" style="edgeStyle=orthogonalEdgeStyle;rounded=0;orthogonalLoop=1;jettySize=auto;html=1;strokeColor=#FF0000;strokeWidth=3;" parent="RCDWl6IY-j7fr2IRrZKx-5" edge="1">
          <mxGeometry relative="1" as="geometry">
            <mxPoint x="36.25" y="500" as="sourcePoint" />
            <mxPoint x="170" y="500" as="targetPoint" />
            <Array as="points">
              <mxPoint x="36.25" y="500" />
            </Array>
          </mxGeometry>
        </mxCell>
        <mxCell id="RCDWl6IY-j7fr2IRrZKx-2" style="edgeStyle=orthogonalEdgeStyle;rounded=0;orthogonalLoop=1;jettySize=auto;html=1;strokeColor=#000000;strokeWidth=3;" parent="RCDWl6IY-j7fr2IRrZKx-5" edge="1">
          <mxGeometry relative="1" as="geometry">
            <mxPoint x="36.25" y="550" as="sourcePoint" />
            <mxPoint x="173" y="550" as="targetPoint" />
            <Array as="points">
              <mxPoint x="36.25" y="550" />
            </Array>
          </mxGeometry>
        </mxCell>
        <mxCell id="RCDWl6IY-j7fr2IRrZKx-4" value="Legend" style="points=[[0,0],[0.25,0],[0.5,0],[0.75,0],[1,0],[1,0.25],[1,0.5],[1,0.75],[1,1],[0.75,1],[0.5,1],[0.25,1],[0,1],[0,0.75],[0,0.5],[0,0.25]];outlineConnect=0;gradientColor=none;html=1;whiteSpace=wrap;fontSize=12;fontStyle=0;container=1;pointerEvents=0;collapsible=0;recursiveResize=0;shape=mxgraph.aws4.group;grIcon=mxgraph.aws4.group_aws_cloud_alt;strokeColor=#232F3E;fillColor=none;verticalAlign=top;align=left;spacingLeft=30;fontColor=#232F3E;dashed=0;" parent="RCDWl6IY-j7fr2IRrZKx-5" vertex="1">
          <mxGeometry width="260" height="590" as="geometry" />
        </mxCell>
        <mxCell id="RCDWl6IY-j7fr2IRrZKx-13" value="Unsuccessful Transmission" style="text;html=1;align=center;verticalAlign=middle;resizable=0;points=[];autosize=1;strokeColor=none;fillColor=none;" parent="RCDWl6IY-j7fr2IRrZKx-4" vertex="1">
          <mxGeometry x="15" y="498" width="170" height="30" as="geometry" />
        </mxCell>
        <mxCell id="RCDWl6IY-j7fr2IRrZKx-7" value="API Gateway" style="text;html=1;align=center;verticalAlign=middle;resizable=0;points=[];autosize=1;strokeColor=none;fillColor=none;" parent="RCDWl6IY-j7fr2IRrZKx-5" vertex="1">
          <mxGeometry x="29.5" y="112" width="90" height="30" as="geometry" />
        </mxCell>
        <mxCell id="RCDWl6IY-j7fr2IRrZKx-10" value="Successful Transmission" style="text;html=1;align=center;verticalAlign=middle;resizable=0;points=[];autosize=1;strokeColor=none;fillColor=none;" parent="RCDWl6IY-j7fr2IRrZKx-5" vertex="1">
          <mxGeometry x="20" y="448" width="160" height="30" as="geometry" />
        </mxCell>
        <mxCell id="RCDWl6IY-j7fr2IRrZKx-11" value="Transmission" style="text;html=1;align=center;verticalAlign=middle;resizable=0;points=[];autosize=1;strokeColor=none;fillColor=none;" parent="RCDWl6IY-j7fr2IRrZKx-5" vertex="1">
          <mxGeometry x="55" y="550" width="90" height="30" as="geometry" />
        </mxCell>
        <mxCell id="U0Wu9tsvAQg00uGdSSrL-3" value="Customer Submits Loan Application" style="verticalLabelPosition=bottom;aspect=fixed;html=1;shape=mxgraph.salesforce.customer_360;" vertex="1" parent="1">
          <mxGeometry x="-170" y="60.00000000000001" width="79.78" height="72.6" as="geometry" />
        </mxCell>
        <mxCell id="U0Wu9tsvAQg00uGdSSrL-4" style="edgeStyle=orthogonalEdgeStyle;rounded=0;orthogonalLoop=1;jettySize=auto;html=1;entryX=0;entryY=0.5;entryDx=0;entryDy=0;entryPerimeter=0;strokeWidth=3;" edge="1" parent="1" source="U0Wu9tsvAQg00uGdSSrL-3" target="maCkLbIFlVlTs5_sAo36-1">
          <mxGeometry relative="1" as="geometry" />
        </mxCell>
      </root>
    </mxGraphModel>
  </diagram>
</mxfile>
